<svg width="23" height="34" viewBox="0 0 23 14" xmlns="http://www.w3.org/2000/svg">
<path fill-rule="evenodd" clip-rule="evenodd" d="M21.0709 7.2066C20.187 6.40604 18.647 5.10913 16.8448 4.00549C14.9665 2.85527 12.9364 1.99827 11.1283 1.99827C9.32026 1.99827 7.29012 2.85527 5.41187 4.00549C3.60968 5.10913 2.06965 6.40605 1.18572 7.2066C2.06965 8.00716 3.60968 9.30408 5.41187 10.4077C7.29012 11.5579 9.32026 12.4149 11.1283 12.4149C12.9364 12.4149 14.9665 11.5579 16.8448 10.4077C18.647 9.30408 20.187 8.00716 21.0709 7.2066ZM21.8456 7.91016C22.2661 7.52675 22.2661 6.88646 21.8456 6.50305C20.0539 4.86926 15.3249 0.956604 11.1283 0.956604C6.93174 0.956604 2.20278 4.86926 0.411057 6.50305C-0.00941426 6.88646 -0.00941534 7.52675 0.411056 7.91016C2.20277 9.54395 6.93173 13.4566 11.1283 13.4566C15.3249 13.4566 20.0539 9.54395 21.8456 7.91016Z" fill="black"/>
<path fill-rule="evenodd" clip-rule="evenodd" d="M11.1284 9.28994C12.279 9.28994 13.2118 8.3572 13.2118 7.2066C13.2118 6.05601 12.279 5.12327 11.1284 5.12327C9.97782 5.12327 9.04508 6.05601 9.04508 7.2066C9.04508 8.3572 9.97782 9.28994 11.1284 9.28994ZM11.1284 10.3316C12.8543 10.3316 14.2534 8.93249 14.2534 7.2066C14.2534 5.48071 12.8543 4.0816 11.1284 4.0816C9.40253 4.0816 8.00342 5.48071 8.00342 7.2066C8.00342 8.93249 9.40253 10.3316 11.1284 10.3316Z" fill="black"/>
</svg>
