<svg width="24" height="24" viewBox="0 0 24 24" xmlns="http://www.w3.org/2000/svg">
<path fill-rule="evenodd" clip-rule="evenodd" d="M23 12C23 18.0751 18.0751 23 12 23C5.92487 23 1 18.0751 1 12C1 5.92487 5.92487 1 12 1C18.0751 1 23 5.92487 23 12ZM24 12C24 18.6274 18.6274 24 12 24C5.37258 24 0 18.6274 0 12C0 5.37258 5.37258 0 12 0C18.6274 0 24 5.37258 24 12ZM8.0625 8.5C7.71451 8.5 7.43758 8.68923 7.26475 8.91967C7.09204 9.14995 7 9.44517 7 9.75C7 10.0548 7.09204 10.35 7.26475 10.5803C7.43758 10.8108 7.71451 11 8.0625 11C8.41049 11 8.68742 10.8108 8.86025 10.5803C9.03296 10.35 9.125 10.0548 9.125 9.75C9.125 9.44517 9.03296 9.14995 8.86025 8.91967C8.68742 8.68923 8.41049 8.5 8.0625 8.5ZM15.5625 8.5C15.2145 8.5 14.9376 8.68923 14.7648 8.91967C14.592 9.14995 14.5 9.44517 14.5 9.75C14.5 10.0548 14.592 10.35 14.7648 10.5803C14.9376 10.8108 15.2145 11 15.5625 11C15.9105 11 16.1874 10.8108 16.3602 10.5803C16.533 10.35 16.625 10.0548 16.625 9.75C16.625 9.44517 16.533 9.14995 16.3602 8.91967C16.1874 8.68923 15.9105 8.5 15.5625 8.5ZM12.1875 14.375C10.0118 14.375 7.98673 15.4239 6.78621 17.1594C6.62911 17.3865 6.31766 17.4433 6.09055 17.2862C5.86345 17.1291 5.8067 16.8177 5.96379 16.5906C7.35649 14.5772 9.69309 13.375 12.1875 13.375C14.6819 13.375 17.0185 14.5772 18.4112 16.5906C18.5683 16.8177 18.5116 17.1291 18.2844 17.2862C18.0573 17.4433 17.7459 17.3865 17.5888 17.1594C16.3883 15.4239 14.3632 14.375 12.1875 14.375Z" fill="#5E6983"/>
</svg>
